solid voidSquare
   facet normal 1.000000e+000 8.673617e-017 0.000000e+000
      outer loop
         vertex 2.000000e+001 4.000000e+001 6.000000e+001
         vertex 2.000000e+001 2.000000e+001 6.000000e+001
         vertex 2.000000e+001 4.000000e+001 4.000000e+001
      endloop
   endfacet
   facet normal 1.000000e+000 8.673617e-017 0.000000e+000
      outer loop
         vertex 2.000000e+001 4.000000e+001 4.000000e+001
         vertex 2.000000e+001 2.000000e+001 6.000000e+001
         vertex 2.000000e+001 2.000000e+001 4.000000e+001
      endloop
   endfacet
   facet normal 1.000000e+000 8.673617e-017 0.000000e+000
      outer loop
         vertex 2.000000e+001 6.000000e+001 2.000000e+001
         vertex 2.000000e+001 6.000000e+001 4.000000e+001
         vertex 2.000000e+001 4.000000e+001 2.000000e+001
      endloop
   endfacet
   facet normal 1.000000e+000 8.673617e-017 0.000000e+000
      outer loop
         vertex 2.000000e+001 4.000000e+001 2.000000e+001
         vertex 2.000000e+001 6.000000e+001 4.000000e+001
         vertex 2.000000e+001 4.000000e+001 4.000000e+001
      endloop
   endfacet
   facet normal 1.000000e+000 8.673617e-017 0.000000e+000
      outer loop
         vertex 2.000000e+001 2.000000e+001 0.000000e+000
         vertex 2.000000e+001 4.000000e+001 0.000000e+000
         vertex 2.000000e+001 2.000000e+001 2.000000e+001
      endloop
   endfacet
   facet normal 1.000000e+000 8.673617e-017 0.000000e+000
      outer loop
         vertex 2.000000e+001 2.000000e+001 2.000000e+001
         vertex 2.000000e+001 4.000000e+001 0.000000e+000
         vertex 2.000000e+001 4.000000e+001 2.000000e+001
      endloop
   endfacet
   facet normal -1.000000e+000 0.000000e+000 0.000000e+000
      outer loop
         vertex 4.000000e+001 2.000000e+001 6.000000e+001
         vertex 4.000000e+001 4.000000e+001 6.000000e+001
         vertex 4.000000e+001 2.000000e+001 4.000000e+001
      endloop
   endfacet
   facet normal -1.000000e+000 0.000000e+000 0.000000e+000
      outer loop
         vertex 4.000000e+001 2.000000e+001 4.000000e+001
         vertex 4.000000e+001 4.000000e+001 6.000000e+001
         vertex 4.000000e+001 4.000000e+001 4.000000e+001
      endloop
   endfacet
   facet normal -1.000000e+000 0.000000e+000 0.000000e+000
      outer loop
         vertex 4.000000e+001 6.000000e+001 4.000000e+001
         vertex 4.000000e+001 6.000000e+001 2.000000e+001
         vertex 4.000000e+001 4.000000e+001 4.000000e+001
      endloop
   endfacet
   facet normal -1.000000e+000 0.000000e+000 0.000000e+000
      outer loop
         vertex 4.000000e+001 4.000000e+001 4.000000e+001
         vertex 4.000000e+001 6.000000e+001 2.000000e+001
         vertex 4.000000e+001 4.000000e+001 2.000000e+001
      endloop
   endfacet
   facet normal -1.000000e+000 0.000000e+000 0.000000e+000
      outer loop
         vertex 4.000000e+001 4.000000e+001 0.000000e+000
         vertex 4.000000e+001 2.000000e+001 0.000000e+000
         vertex 4.000000e+001 4.000000e+001 2.000000e+001
      endloop
   endfacet
   facet normal -1.000000e+000 0.000000e+000 0.000000e+000
      outer loop
         vertex 4.000000e+001 4.000000e+001 2.000000e+001
         vertex 4.000000e+001 2.000000e+001 0.000000e+000
         vertex 4.000000e+001 2.000000e+001 2.000000e+001
      endloop
   endfacet
   facet normal 0.000000e+000 1.000000e+000 0.000000e+000
      outer loop
         vertex 4.000000e+001 2.000000e+001 0.000000e+000
         vertex 2.000000e+001 2.000000e+001 0.000000e+000
         vertex 4.000000e+001 2.000000e+001 2.000000e+001
      endloop
   endfacet
   facet normal 0.000000e+000 1.000000e+000 0.000000e+000
      outer loop
         vertex 4.000000e+001 2.000000e+001 2.000000e+001
         vertex 2.000000e+001 2.000000e+001 0.000000e+000
         vertex 2.000000e+001 2.000000e+001 2.000000e+001
      endloop
   endfacet
   facet normal 0.000000e+000 -1.000000e+000 0.000000e+000
      outer loop
         vertex 2.000000e+001 4.000000e+001 0.000000e+000
         vertex 4.000000e+001 4.000000e+001 0.000000e+000
         vertex 2.000000e+001 4.000000e+001 2.000000e+001
      endloop
   endfacet
   facet normal 0.000000e+000 -1.000000e+000 0.000000e+000
      outer loop
         vertex 2.000000e+001 4.000000e+001 2.000000e+001
         vertex 4.000000e+001 4.000000e+001 0.000000e+000
         vertex 4.000000e+001 4.000000e+001 2.000000e+001
      endloop
   endfacet
   facet normal 0.000000e+000 0.000000e+000 1.000000e+000
      outer loop
         vertex 2.000000e+001 4.000000e+001 6.000000e+001
         vertex 0.000000e+000 6.000000e+001 6.000000e+001
         vertex 2.000000e+001 2.000000e+001 6.000000e+001
      endloop
   endfacet
   facet normal 0.000000e+000 0.000000e+000 1.000000e+000
      outer loop
         vertex 2.000000e+001 2.000000e+001 6.000000e+001
         vertex 0.000000e+000 6.000000e+001 6.000000e+001
         vertex 0.000000e+000 0.000000e+000 6.000000e+001
      endloop
   endfacet
   facet normal 0.000000e+000 0.000000e+000 1.000000e+000
      outer loop
         vertex 2.000000e+001 2.000000e+001 6.000000e+001
         vertex 0.000000e+000 0.000000e+000 6.000000e+001
         vertex 4.000000e+001 2.000000e+001 6.000000e+001
      endloop
   endfacet
   facet normal 0.000000e+000 0.000000e+000 1.000000e+000
      outer loop
         vertex 4.000000e+001 2.000000e+001 6.000000e+001
         vertex 0.000000e+000 0.000000e+000 6.000000e+001
         vertex 6.000000e+001 0.000000e+000 6.000000e+001
      endloop
   endfacet
   facet normal 0.000000e+000 0.000000e+000 1.000000e+000
      outer loop
         vertex 4.000000e+001 2.000000e+001 6.000000e+001
         vertex 6.000000e+001 0.000000e+000 6.000000e+001
         vertex 4.000000e+001 4.000000e+001 6.000000e+001
      endloop
   endfacet
   facet normal 0.000000e+000 0.000000e+000 1.000000e+000
      outer loop
         vertex 4.000000e+001 4.000000e+001 6.000000e+001
         vertex 6.000000e+001 0.000000e+000 6.000000e+001
         vertex 6.000000e+001 6.000000e+001 6.000000e+001
      endloop
   endfacet
   facet normal 0.000000e+000 0.000000e+000 1.000000e+000
      outer loop
         vertex 4.000000e+001 4.000000e+001 6.000000e+001
         vertex 6.000000e+001 6.000000e+001 6.000000e+001
         vertex 2.000000e+001 4.000000e+001 6.000000e+001
      endloop
   endfacet
   facet normal 0.000000e+000 0.000000e+000 1.000000e+000
      outer loop
         vertex 2.000000e+001 4.000000e+001 6.000000e+001
         vertex 6.000000e+001 6.000000e+001 6.000000e+001
         vertex 0.000000e+000 6.000000e+001 6.000000e+001
      endloop
   endfacet
   facet normal 0.000000e+000 0.000000e+000 -1.000000e+000
      outer loop
         vertex 4.000000e+001 4.000000e+001 0.000000e+000
         vertex 6.000000e+001 6.000000e+001 0.000000e+000
         vertex 4.000000e+001 2.000000e+001 0.000000e+000
      endloop
   endfacet
   facet normal 0.000000e+000 0.000000e+000 -1.000000e+000
      outer loop
         vertex 4.000000e+001 2.000000e+001 0.000000e+000
         vertex 6.000000e+001 6.000000e+001 0.000000e+000
         vertex 6.000000e+001 0.000000e+000 0.000000e+000
      endloop
   endfacet
   facet normal 0.000000e+000 0.000000e+000 -1.000000e+000
      outer loop
         vertex 4.000000e+001 2.000000e+001 0.000000e+000
         vertex 6.000000e+001 0.000000e+000 0.000000e+000
         vertex 2.000000e+001 2.000000e+001 0.000000e+000
      endloop
   endfacet
   facet normal 0.000000e+000 0.000000e+000 -1.000000e+000
      outer loop
         vertex 2.000000e+001 2.000000e+001 0.000000e+000
         vertex 6.000000e+001 0.000000e+000 0.000000e+000
         vertex 0.000000e+000 0.000000e+000 0.000000e+000
      endloop
   endfacet
   facet normal 0.000000e+000 0.000000e+000 -1.000000e+000
      outer loop
         vertex 2.000000e+001 2.000000e+001 0.000000e+000
         vertex 0.000000e+000 0.000000e+000 0.000000e+000
         vertex 2.000000e+001 4.000000e+001 0.000000e+000
      endloop
   endfacet
   facet normal 0.000000e+000 0.000000e+000 -1.000000e+000
      outer loop
         vertex 2.000000e+001 4.000000e+001 0.000000e+000
         vertex 0.000000e+000 0.000000e+000 0.000000e+000
         vertex 0.000000e+000 6.000000e+001 0.000000e+000
      endloop
   endfacet
   facet normal 0.000000e+000 0.000000e+000 -1.000000e+000
      outer loop
         vertex 2.000000e+001 4.000000e+001 0.000000e+000
         vertex 0.000000e+000 6.000000e+001 0.000000e+000
         vertex 4.000000e+001 4.000000e+001 0.000000e+000
      endloop
   endfacet
   facet normal 0.000000e+000 0.000000e+000 -1.000000e+000
      outer loop
         vertex 4.000000e+001 4.000000e+001 0.000000e+000
         vertex 0.000000e+000 6.000000e+001 0.000000e+000
         vertex 6.000000e+001 6.000000e+001 0.000000e+000
      endloop
   endfacet
   facet normal -1.000000e+000 -1.734723e-016 0.000000e+000
      outer loop
         vertex 0.000000e+000 4.000000e+001 2.000000e+001
         vertex 0.000000e+000 6.000000e+001 1.387779e-014
         vertex 0.000000e+000 2.000000e+001 2.000000e+001
      endloop
   endfacet
   facet normal -1.000000e+000 -1.734723e-016 0.000000e+000
      outer loop
         vertex 0.000000e+000 2.000000e+001 2.000000e+001
         vertex 0.000000e+000 6.000000e+001 1.387779e-014
         vertex 0.000000e+000 0.000000e+000 1.387779e-014
      endloop
   endfacet
   facet normal -1.000000e+000 -1.734723e-016 0.000000e+000
      outer loop
         vertex 0.000000e+000 2.000000e+001 2.000000e+001
         vertex 0.000000e+000 0.000000e+000 1.387779e-014
         vertex 0.000000e+000 2.000000e+001 4.000000e+001
      endloop
   endfacet
   facet normal -1.000000e+000 -1.734723e-016 0.000000e+000
      outer loop
         vertex 0.000000e+000 2.000000e+001 4.000000e+001
         vertex 0.000000e+000 0.000000e+000 1.387779e-014
         vertex 0.000000e+000 0.000000e+000 6.000000e+001
      endloop
   endfacet
   facet normal -1.000000e+000 -1.734723e-016 0.000000e+000
      outer loop
         vertex 0.000000e+000 2.000000e+001 4.000000e+001
         vertex 0.000000e+000 0.000000e+000 6.000000e+001
         vertex 0.000000e+000 4.000000e+001 4.000000e+001
      endloop
   endfacet
   facet normal -1.000000e+000 -1.734723e-016 0.000000e+000
      outer loop
         vertex 0.000000e+000 4.000000e+001 4.000000e+001
         vertex 0.000000e+000 0.000000e+000 6.000000e+001
         vertex 0.000000e+000 6.000000e+001 6.000000e+001
      endloop
   endfacet
   facet normal -1.000000e+000 -1.734723e-016 0.000000e+000
      outer loop
         vertex 0.000000e+000 4.000000e+001 4.000000e+001
         vertex 0.000000e+000 6.000000e+001 6.000000e+001
         vertex 0.000000e+000 4.000000e+001 2.000000e+001
      endloop
   endfacet
   facet normal -1.000000e+000 -1.734723e-016 0.000000e+000
      outer loop
         vertex 0.000000e+000 4.000000e+001 2.000000e+001
         vertex 0.000000e+000 6.000000e+001 6.000000e+001
         vertex 0.000000e+000 6.000000e+001 1.387779e-014
      endloop
   endfacet
   facet normal 2.312965e-016 -1.000000e+000 0.000000e+000
      outer loop
         vertex 2.000000e+001 0.000000e+000 4.000000e+001
         vertex 0.000000e+000 0.000000e+000 6.000000e+001
         vertex 2.000000e+001 0.000000e+000 2.000000e+001
      endloop
   endfacet
   facet normal 2.312965e-016 -1.000000e+000 0.000000e+000
      outer loop
         vertex 2.000000e+001 0.000000e+000 2.000000e+001
         vertex 0.000000e+000 0.000000e+000 6.000000e+001
         vertex 0.000000e+000 0.000000e+000 0.000000e+000
      endloop
   endfacet
   facet normal 2.312965e-016 -1.000000e+000 0.000000e+000
      outer loop
         vertex 2.000000e+001 0.000000e+000 2.000000e+001
         vertex 0.000000e+000 0.000000e+000 0.000000e+000
         vertex 4.000000e+001 0.000000e+000 2.000000e+001
      endloop
   endfacet
   facet normal 2.312965e-016 -1.000000e+000 0.000000e+000
      outer loop
         vertex 4.000000e+001 0.000000e+000 2.000000e+001
         vertex 0.000000e+000 0.000000e+000 0.000000e+000
         vertex 6.000000e+001 0.000000e+000 0.000000e+000
      endloop
   endfacet
   facet normal 2.312965e-016 -1.000000e+000 0.000000e+000
      outer loop
         vertex 4.000000e+001 0.000000e+000 2.000000e+001
         vertex 6.000000e+001 0.000000e+000 0.000000e+000
         vertex 4.000000e+001 0.000000e+000 4.000000e+001
      endloop
   endfacet
   facet normal 2.312965e-016 -1.000000e+000 0.000000e+000
      outer loop
         vertex 4.000000e+001 0.000000e+000 4.000000e+001
         vertex 6.000000e+001 0.000000e+000 0.000000e+000
         vertex 6.000000e+001 0.000000e+000 6.000000e+001
      endloop
   endfacet
   facet normal 2.312965e-016 -1.000000e+000 0.000000e+000
      outer loop
         vertex 4.000000e+001 0.000000e+000 4.000000e+001
         vertex 6.000000e+001 0.000000e+000 6.000000e+001
         vertex 2.000000e+001 0.000000e+000 4.000000e+001
      endloop
   endfacet
   facet normal 2.312965e-016 -1.000000e+000 0.000000e+000
      outer loop
         vertex 2.000000e+001 0.000000e+000 4.000000e+001
         vertex 6.000000e+001 0.000000e+000 6.000000e+001
         vertex 0.000000e+000 0.000000e+000 6.000000e+001
      endloop
   endfacet
   facet normal 1.000000e+000 1.156482e-016 0.000000e+000
      outer loop
         vertex 6.000000e+001 2.000000e+001 4.000000e+001
         vertex 6.000000e+001 0.000000e+000 6.000000e+001
         vertex 6.000000e+001 2.000000e+001 2.000000e+001
      endloop
   endfacet
   facet normal 1.000000e+000 1.156482e-016 0.000000e+000
      outer loop
         vertex 6.000000e+001 2.000000e+001 2.000000e+001
         vertex 6.000000e+001 0.000000e+000 6.000000e+001
         vertex 6.000000e+001 0.000000e+000 1.387779e-014
      endloop
   endfacet
   facet normal 1.000000e+000 1.156482e-016 0.000000e+000
      outer loop
         vertex 6.000000e+001 2.000000e+001 2.000000e+001
         vertex 6.000000e+001 0.000000e+000 1.387779e-014
         vertex 6.000000e+001 4.000000e+001 2.000000e+001
      endloop
   endfacet
   facet normal 1.000000e+000 1.156482e-016 0.000000e+000
      outer loop
         vertex 6.000000e+001 4.000000e+001 2.000000e+001
         vertex 6.000000e+001 0.000000e+000 1.387779e-014
         vertex 6.000000e+001 6.000000e+001 1.387779e-014
      endloop
   endfacet
   facet normal 1.000000e+000 1.156482e-016 0.000000e+000
      outer loop
         vertex 6.000000e+001 4.000000e+001 2.000000e+001
         vertex 6.000000e+001 6.000000e+001 1.387779e-014
         vertex 6.000000e+001 4.000000e+001 4.000000e+001
      endloop
   endfacet
   facet normal 1.000000e+000 1.156482e-016 0.000000e+000
      outer loop
         vertex 6.000000e+001 4.000000e+001 4.000000e+001
         vertex 6.000000e+001 6.000000e+001 1.387779e-014
         vertex 6.000000e+001 6.000000e+001 6.000000e+001
      endloop
   endfacet
   facet normal 1.000000e+000 1.156482e-016 0.000000e+000
      outer loop
         vertex 6.000000e+001 4.000000e+001 4.000000e+001
         vertex 6.000000e+001 6.000000e+001 6.000000e+001
         vertex 6.000000e+001 2.000000e+001 4.000000e+001
      endloop
   endfacet
   facet normal 1.000000e+000 1.156482e-016 0.000000e+000
      outer loop
         vertex 6.000000e+001 2.000000e+001 4.000000e+001
         vertex 6.000000e+001 6.000000e+001 6.000000e+001
         vertex 6.000000e+001 0.000000e+000 6.000000e+001
      endloop
   endfacet
   facet normal 0.000000e+000 1.000000e+000 0.000000e+000
      outer loop
         vertex 2.000000e+001 6.000000e+001 4.000000e+001
         vertex 0.000000e+000 6.000000e+001 6.000000e+001
         vertex 6.000000e+001 6.000000e+001 6.000000e+001
      endloop
   endfacet
   facet normal 0.000000e+000 1.000000e+000 0.000000e+000
      outer loop
         vertex 0.000000e+000 6.000000e+001 6.000000e+001
         vertex 2.000000e+001 6.000000e+001 4.000000e+001
         vertex 0.000000e+000 6.000000e+001 0.000000e+000
      endloop
   endfacet
   facet normal 0.000000e+000 1.000000e+000 0.000000e+000
      outer loop
         vertex 0.000000e+000 6.000000e+001 0.000000e+000
         vertex 2.000000e+001 6.000000e+001 4.000000e+001
         vertex 2.000000e+001 6.000000e+001 2.000000e+001
      endloop
   endfacet
   facet normal 0.000000e+000 1.000000e+000 0.000000e+000
      outer loop
         vertex 0.000000e+000 6.000000e+001 0.000000e+000
         vertex 2.000000e+001 6.000000e+001 2.000000e+001
         vertex 6.000000e+001 6.000000e+001 0.000000e+000
      endloop
   endfacet
   facet normal 0.000000e+000 1.000000e+000 0.000000e+000
      outer loop
         vertex 6.000000e+001 6.000000e+001 0.000000e+000
         vertex 2.000000e+001 6.000000e+001 2.000000e+001
         vertex 4.000000e+001 6.000000e+001 2.000000e+001
      endloop
   endfacet
   facet normal 0.000000e+000 1.000000e+000 0.000000e+000
      outer loop
         vertex 6.000000e+001 6.000000e+001 0.000000e+000
         vertex 4.000000e+001 6.000000e+001 2.000000e+001
         vertex 6.000000e+001 6.000000e+001 6.000000e+001
      endloop
   endfacet
   facet normal 0.000000e+000 1.000000e+000 0.000000e+000
      outer loop
         vertex 6.000000e+001 6.000000e+001 6.000000e+001
         vertex 4.000000e+001 6.000000e+001 2.000000e+001
         vertex 4.000000e+001 6.000000e+001 4.000000e+001
      endloop
   endfacet
   facet normal 0.000000e+000 1.000000e+000 0.000000e+000
      outer loop
         vertex 6.000000e+001 6.000000e+001 6.000000e+001
         vertex 4.000000e+001 6.000000e+001 4.000000e+001
         vertex 2.000000e+001 6.000000e+001 4.000000e+001
      endloop
   endfacet
   facet normal 1.000000e+000 8.673617e-017 0.000000e+000
      outer loop
         vertex 2.000000e+001 0.000000e+000 4.000000e+001
         vertex 2.000000e+001 0.000000e+000 2.000000e+001
         vertex 2.000000e+001 2.000000e+001 4.000000e+001
      endloop
   endfacet
   facet normal 1.000000e+000 8.673617e-017 0.000000e+000
      outer loop
         vertex 2.000000e+001 2.000000e+001 4.000000e+001
         vertex 2.000000e+001 0.000000e+000 2.000000e+001
         vertex 2.000000e+001 2.000000e+001 2.000000e+001
      endloop
   endfacet
   facet normal 0.000000e+000 1.000000e+000 0.000000e+000
      outer loop
         vertex 2.000000e+001 2.000000e+001 6.000000e+001
         vertex 4.000000e+001 2.000000e+001 6.000000e+001
         vertex 2.000000e+001 2.000000e+001 4.000000e+001
      endloop
   endfacet
   facet normal 0.000000e+000 1.000000e+000 0.000000e+000
      outer loop
         vertex 2.000000e+001 2.000000e+001 4.000000e+001
         vertex 4.000000e+001 2.000000e+001 6.000000e+001
         vertex 4.000000e+001 2.000000e+001 4.000000e+001
      endloop
   endfacet
   facet normal -1.000000e+000 0.000000e+000 0.000000e+000
      outer loop
         vertex 4.000000e+001 0.000000e+000 2.000000e+001
         vertex 4.000000e+001 0.000000e+000 4.000000e+001
         vertex 4.000000e+001 2.000000e+001 2.000000e+001
      endloop
   endfacet
   facet normal -1.000000e+000 0.000000e+000 0.000000e+000
      outer loop
         vertex 4.000000e+001 2.000000e+001 2.000000e+001
         vertex 4.000000e+001 0.000000e+000 4.000000e+001
         vertex 4.000000e+001 2.000000e+001 4.000000e+001
      endloop
   endfacet
   facet normal 0.000000e+000 -1.000000e+000 0.000000e+000
      outer loop
         vertex 4.000000e+001 4.000000e+001 6.000000e+001
         vertex 2.000000e+001 4.000000e+001 6.000000e+001
         vertex 4.000000e+001 4.000000e+001 4.000000e+001
      endloop
   endfacet
   facet normal 0.000000e+000 -1.000000e+000 0.000000e+000
      outer loop
         vertex 4.000000e+001 4.000000e+001 4.000000e+001
         vertex 2.000000e+001 4.000000e+001 6.000000e+001
         vertex 2.000000e+001 4.000000e+001 4.000000e+001
      endloop
   endfacet
   facet normal 0.000000e+000 0.000000e+000 -1.000000e+000
      outer loop
         vertex 2.000000e+001 6.000000e+001 4.000000e+001
         vertex 4.000000e+001 6.000000e+001 4.000000e+001
         vertex 2.000000e+001 4.000000e+001 4.000000e+001
      endloop
   endfacet
   facet normal 0.000000e+000 0.000000e+000 -1.000000e+000
      outer loop
         vertex 2.000000e+001 4.000000e+001 4.000000e+001
         vertex 4.000000e+001 6.000000e+001 4.000000e+001
         vertex 4.000000e+001 4.000000e+001 4.000000e+001
      endloop
   endfacet
   facet normal 0.000000e+000 0.000000e+000 1.000000e+000
      outer loop
         vertex 4.000000e+001 6.000000e+001 2.000000e+001
         vertex 2.000000e+001 6.000000e+001 2.000000e+001
         vertex 4.000000e+001 4.000000e+001 2.000000e+001
      endloop
   endfacet
   facet normal 0.000000e+000 0.000000e+000 1.000000e+000
      outer loop
         vertex 4.000000e+001 4.000000e+001 2.000000e+001
         vertex 2.000000e+001 6.000000e+001 2.000000e+001
         vertex 2.000000e+001 4.000000e+001 2.000000e+001
      endloop
   endfacet
   facet normal 0.000000e+000 0.000000e+000 1.000000e+000
      outer loop
         vertex 2.000000e+001 0.000000e+000 2.000000e+001
         vertex 4.000000e+001 0.000000e+000 2.000000e+001
         vertex 2.000000e+001 2.000000e+001 2.000000e+001
      endloop
   endfacet
   facet normal 0.000000e+000 0.000000e+000 1.000000e+000
      outer loop
         vertex 2.000000e+001 2.000000e+001 2.000000e+001
         vertex 4.000000e+001 0.000000e+000 2.000000e+001
         vertex 4.000000e+001 2.000000e+001 2.000000e+001
      endloop
   endfacet
   facet normal 0.000000e+000 0.000000e+000 -1.000000e+000
      outer loop
         vertex 4.000000e+001 0.000000e+000 4.000000e+001
         vertex 2.000000e+001 0.000000e+000 4.000000e+001
         vertex 4.000000e+001 2.000000e+001 4.000000e+001
      endloop
   endfacet
   facet normal 0.000000e+000 0.000000e+000 -1.000000e+000
      outer loop
         vertex 4.000000e+001 2.000000e+001 4.000000e+001
         vertex 2.000000e+001 0.000000e+000 4.000000e+001
         vertex 2.000000e+001 2.000000e+001 4.000000e+001
      endloop
   endfacet
   facet normal 0.000000e+000 1.000000e+000 0.000000e+000
      outer loop
         vertex 6.000000e+001 2.000000e+001 4.000000e+001
         vertex 6.000000e+001 2.000000e+001 2.000000e+001
         vertex 4.000000e+001 2.000000e+001 4.000000e+001
      endloop
   endfacet
   facet normal 0.000000e+000 1.000000e+000 0.000000e+000
      outer loop
         vertex 4.000000e+001 2.000000e+001 4.000000e+001
         vertex 6.000000e+001 2.000000e+001 2.000000e+001
         vertex 4.000000e+001 2.000000e+001 2.000000e+001
      endloop
   endfacet
   facet normal 0.000000e+000 -1.734723e-016 1.000000e+000
      outer loop
         vertex 6.000000e+001 2.000000e+001 2.000000e+001
         vertex 6.000000e+001 4.000000e+001 2.000000e+001
         vertex 4.000000e+001 2.000000e+001 2.000000e+001
      endloop
   endfacet
   facet normal 0.000000e+000 -1.734723e-016 1.000000e+000
      outer loop
         vertex 4.000000e+001 2.000000e+001 2.000000e+001
         vertex 6.000000e+001 4.000000e+001 2.000000e+001
         vertex 4.000000e+001 4.000000e+001 2.000000e+001
      endloop
   endfacet
   facet normal 0.000000e+000 -1.000000e+000 0.000000e+000
      outer loop
         vertex 6.000000e+001 4.000000e+001 2.000000e+001
         vertex 6.000000e+001 4.000000e+001 4.000000e+001
         vertex 4.000000e+001 4.000000e+001 2.000000e+001
      endloop
   endfacet
   facet normal 0.000000e+000 -1.000000e+000 0.000000e+000
      outer loop
         vertex 4.000000e+001 4.000000e+001 2.000000e+001
         vertex 6.000000e+001 4.000000e+001 4.000000e+001
         vertex 4.000000e+001 4.000000e+001 4.000000e+001
      endloop
   endfacet
   facet normal 0.000000e+000 0.000000e+000 -1.000000e+000
      outer loop
         vertex 6.000000e+001 4.000000e+001 4.000000e+001
         vertex 6.000000e+001 2.000000e+001 4.000000e+001
         vertex 4.000000e+001 4.000000e+001 4.000000e+001
      endloop
   endfacet
   facet normal 0.000000e+000 0.000000e+000 -1.000000e+000
      outer loop
         vertex 4.000000e+001 4.000000e+001 4.000000e+001
         vertex 6.000000e+001 2.000000e+001 4.000000e+001
         vertex 4.000000e+001 2.000000e+001 4.000000e+001
      endloop
   endfacet
   facet normal 0.000000e+000 -1.734723e-016 1.000000e+000
      outer loop
         vertex 0.000000e+000 4.000000e+001 2.000000e+001
         vertex 0.000000e+000 2.000000e+001 2.000000e+001
         vertex 2.000000e+001 4.000000e+001 2.000000e+001
      endloop
   endfacet
   facet normal 0.000000e+000 -1.734723e-016 1.000000e+000
      outer loop
         vertex 2.000000e+001 4.000000e+001 2.000000e+001
         vertex 0.000000e+000 2.000000e+001 2.000000e+001
         vertex 2.000000e+001 2.000000e+001 2.000000e+001
      endloop
   endfacet
   facet normal 0.000000e+000 0.000000e+000 -1.000000e+000
      outer loop
         vertex 0.000000e+000 2.000000e+001 4.000000e+001
         vertex 0.000000e+000 4.000000e+001 4.000000e+001
         vertex 2.000000e+001 2.000000e+001 4.000000e+001
      endloop
   endfacet
   facet normal 0.000000e+000 0.000000e+000 -1.000000e+000
      outer loop
         vertex 2.000000e+001 2.000000e+001 4.000000e+001
         vertex 0.000000e+000 4.000000e+001 4.000000e+001
         vertex 2.000000e+001 4.000000e+001 4.000000e+001
      endloop
   endfacet
   facet normal 0.000000e+000 -1.000000e+000 0.000000e+000
      outer loop
         vertex 0.000000e+000 4.000000e+001 4.000000e+001
         vertex 0.000000e+000 4.000000e+001 2.000000e+001
         vertex 2.000000e+001 4.000000e+001 4.000000e+001
      endloop
   endfacet
   facet normal 0.000000e+000 -1.000000e+000 0.000000e+000
      outer loop
         vertex 2.000000e+001 4.000000e+001 4.000000e+001
         vertex 0.000000e+000 4.000000e+001 2.000000e+001
         vertex 2.000000e+001 4.000000e+001 2.000000e+001
      endloop
   endfacet
   facet normal 0.000000e+000 1.000000e+000 0.000000e+000
      outer loop
         vertex 0.000000e+000 2.000000e+001 2.000000e+001
         vertex 0.000000e+000 2.000000e+001 4.000000e+001
         vertex 2.000000e+001 2.000000e+001 2.000000e+001
      endloop
   endfacet
   facet normal 0.000000e+000 1.000000e+000 0.000000e+000
      outer loop
         vertex 2.000000e+001 2.000000e+001 2.000000e+001
         vertex 0.000000e+000 2.000000e+001 4.000000e+001
         vertex 2.000000e+001 2.000000e+001 4.000000e+001
      endloop
   endfacet
endsolid